<mxfile host="app.diagrams.net" agent="Mozilla/5.0 (X11; Linux x86_64; rv:142.0) Gecko/20100101 Firefox/142.0" version="28.1.2">
  <diagram name="Page-1" id="Q0V_ZiMDzLkfY8J2gBLX">
    <mxGraphModel dx="853" dy="2286" grid="1" gridSize="10" guides="1" tooltips="1" connect="1" arrows="1" fold="1" page="1" pageScale="1" pageWidth="850" pageHeight="1100" math="0" shadow="0">
      <root>
        <mxCell id="0" />
        <mxCell id="1" parent="0" />
        <mxCell id="Kam8dWgokP5gCJ88pYki-21" value="Weapon" style="swimlane;fontStyle=0;childLayout=stackLayout;horizontal=1;startSize=26;fillColor=none;horizontalStack=0;resizeParent=1;resizeParentMax=0;resizeLast=0;collapsible=1;marginBottom=0;whiteSpace=wrap;html=1;" vertex="1" parent="1">
          <mxGeometry x="500" y="-30" width="180" height="196" as="geometry" />
        </mxCell>
        <mxCell id="Kam8dWgokP5gCJ88pYki-22" value="- parts: []" style="text;strokeColor=none;fillColor=none;align=left;verticalAlign=top;spacingLeft=4;spacingRight=4;overflow=hidden;rotatable=0;points=[[0,0.5],[1,0.5]];portConstraint=eastwest;whiteSpace=wrap;html=1;" vertex="1" parent="Kam8dWgokP5gCJ88pYki-21">
          <mxGeometry y="26" width="180" height="26" as="geometry" />
        </mxCell>
        <mxCell id="Kam8dWgokP5gCJ88pYki-23" value="- damage: 0" style="text;strokeColor=none;fillColor=none;align=left;verticalAlign=top;spacingLeft=4;spacingRight=4;overflow=hidden;rotatable=0;points=[[0,0.5],[1,0.5]];portConstraint=eastwest;whiteSpace=wrap;html=1;" vertex="1" parent="Kam8dWgokP5gCJ88pYki-21">
          <mxGeometry y="52" width="180" height="26" as="geometry" />
        </mxCell>
        <mxCell id="Kam8dWgokP5gCJ88pYki-25" value="" style="line;strokeWidth=1;fillColor=none;align=left;verticalAlign=middle;spacingTop=-1;spacingLeft=3;spacingRight=3;rotatable=0;labelPosition=right;points=[];portConstraint=eastwest;strokeColor=inherit;" vertex="1" parent="Kam8dWgokP5gCJ88pYki-21">
          <mxGeometry y="78" width="180" height="8" as="geometry" />
        </mxCell>
        <mxCell id="Kam8dWgokP5gCJ88pYki-26" value="+ __init__()" style="text;strokeColor=none;fillColor=none;align=left;verticalAlign=top;spacingLeft=4;spacingRight=4;overflow=hidden;rotatable=0;points=[[0,0.5],[1,0.5]];portConstraint=eastwest;whiteSpace=wrap;html=1;" vertex="1" parent="Kam8dWgokP5gCJ88pYki-21">
          <mxGeometry y="86" width="180" height="26" as="geometry" />
        </mxCell>
        <mxCell id="Kam8dWgokP5gCJ88pYki-27" value="&lt;div&gt;+ add_part: (part)&lt;/div&gt;&lt;div&gt;&lt;br&gt;&lt;div&gt;+ add_damage: (damage)&lt;/div&gt;&lt;div&gt;&lt;br&gt;&lt;/div&gt;&lt;/div&gt;" style="text;strokeColor=none;fillColor=none;align=left;verticalAlign=top;spacingLeft=4;spacingRight=4;overflow=hidden;rotatable=0;points=[[0,0.5],[1,0.5]];portConstraint=eastwest;whiteSpace=wrap;html=1;" vertex="1" parent="Kam8dWgokP5gCJ88pYki-21">
          <mxGeometry y="112" width="180" height="58" as="geometry" />
        </mxCell>
        <mxCell id="Kam8dWgokP5gCJ88pYki-35" value="+ __str__()" style="text;strokeColor=none;fillColor=none;align=left;verticalAlign=top;spacingLeft=4;spacingRight=4;overflow=hidden;rotatable=0;points=[[0,0.5],[1,0.5]];portConstraint=eastwest;whiteSpace=wrap;html=1;" vertex="1" parent="Kam8dWgokP5gCJ88pYki-21">
          <mxGeometry y="170" width="180" height="26" as="geometry" />
        </mxCell>
        <mxCell id="Kam8dWgokP5gCJ88pYki-36" value="&lt;div&gt;WeaponBuilder&lt;/div&gt;&lt;div&gt;abstract&lt;/div&gt;" style="swimlane;fontStyle=1;align=center;verticalAlign=top;childLayout=stackLayout;horizontal=1;startSize=50;horizontalStack=0;resizeParent=1;resizeParentMax=0;resizeLast=0;collapsible=1;marginBottom=0;whiteSpace=wrap;html=1;" vertex="1" parent="1">
          <mxGeometry x="860" y="50" width="160" height="170" as="geometry" />
        </mxCell>
        <mxCell id="Kam8dWgokP5gCJ88pYki-37" value="+ add_base()" style="text;strokeColor=none;fillColor=none;align=left;verticalAlign=top;spacingLeft=4;spacingRight=4;overflow=hidden;rotatable=0;points=[[0,0.5],[1,0.5]];portConstraint=eastwest;whiteSpace=wrap;html=1;" vertex="1" parent="Kam8dWgokP5gCJ88pYki-36">
          <mxGeometry y="50" width="160" height="30" as="geometry" />
        </mxCell>
        <mxCell id="Kam8dWgokP5gCJ88pYki-38" value="+ add_blade()" style="text;strokeColor=none;fillColor=none;align=left;verticalAlign=top;spacingLeft=4;spacingRight=4;overflow=hidden;rotatable=0;points=[[0,0.5],[1,0.5]];portConstraint=eastwest;whiteSpace=wrap;html=1;" vertex="1" parent="Kam8dWgokP5gCJ88pYki-36">
          <mxGeometry y="80" width="160" height="30" as="geometry" />
        </mxCell>
        <mxCell id="Kam8dWgokP5gCJ88pYki-39" value="+ add_enchantment()" style="text;strokeColor=none;fillColor=none;align=left;verticalAlign=top;spacingLeft=4;spacingRight=4;overflow=hidden;rotatable=0;points=[[0,0.5],[1,0.5]];portConstraint=eastwest;whiteSpace=wrap;html=1;" vertex="1" parent="Kam8dWgokP5gCJ88pYki-36">
          <mxGeometry y="110" width="160" height="30" as="geometry" />
        </mxCell>
        <mxCell id="Kam8dWgokP5gCJ88pYki-40" value="+ get_result()" style="text;strokeColor=none;fillColor=none;align=left;verticalAlign=top;spacingLeft=4;spacingRight=4;overflow=hidden;rotatable=0;points=[[0,0.5],[1,0.5]];portConstraint=eastwest;whiteSpace=wrap;html=1;" vertex="1" parent="Kam8dWgokP5gCJ88pYki-36">
          <mxGeometry y="140" width="160" height="30" as="geometry" />
        </mxCell>
        <mxCell id="Kam8dWgokP5gCJ88pYki-41" value="SwordBuilder" style="swimlane;fontStyle=0;childLayout=stackLayout;horizontal=1;startSize=26;fillColor=none;horizontalStack=0;resizeParent=1;resizeParentMax=0;resizeLast=0;collapsible=1;marginBottom=0;whiteSpace=wrap;html=1;" vertex="1" parent="1">
          <mxGeometry x="320" y="350" width="260" height="210" as="geometry" />
        </mxCell>
        <mxCell id="Kam8dWgokP5gCJ88pYki-42" value="- weapon: Weapon" style="text;strokeColor=none;fillColor=none;align=left;verticalAlign=top;spacingLeft=4;spacingRight=4;overflow=hidden;rotatable=0;points=[[0,0.5],[1,0.5]];portConstraint=eastwest;whiteSpace=wrap;html=1;" vertex="1" parent="Kam8dWgokP5gCJ88pYki-41">
          <mxGeometry y="26" width="260" height="26" as="geometry" />
        </mxCell>
        <mxCell id="Kam8dWgokP5gCJ88pYki-45" value="" style="line;strokeWidth=1;fillColor=none;align=left;verticalAlign=middle;spacingTop=-1;spacingLeft=3;spacingRight=3;rotatable=0;labelPosition=right;points=[];portConstraint=eastwest;strokeColor=inherit;" vertex="1" parent="Kam8dWgokP5gCJ88pYki-41">
          <mxGeometry y="52" width="260" height="8" as="geometry" />
        </mxCell>
        <mxCell id="Kam8dWgokP5gCJ88pYki-46" value="+ __init__()" style="text;strokeColor=none;fillColor=none;align=left;verticalAlign=top;spacingLeft=4;spacingRight=4;overflow=hidden;rotatable=0;points=[[0,0.5],[1,0.5]];portConstraint=eastwest;whiteSpace=wrap;html=1;" vertex="1" parent="Kam8dWgokP5gCJ88pYki-41">
          <mxGeometry y="60" width="260" height="26" as="geometry" />
        </mxCell>
        <mxCell id="Kam8dWgokP5gCJ88pYki-47" value="&lt;div&gt;+ add_base(): SwordBuilder&lt;/div&gt;&lt;div&gt;&lt;br&gt;&lt;/div&gt;&lt;div&gt;+ add_blade():&amp;nbsp;SwordBuilder&lt;/div&gt;&lt;div&gt;&lt;br&gt;&lt;/div&gt;&lt;div&gt;&lt;div&gt;+ add_enchantment():&amp;nbsp;SwordBuilder&lt;/div&gt;&lt;div&gt;&lt;br&gt;&lt;/div&gt;&lt;div&gt;+ get_result(): Weapon&lt;/div&gt;&lt;br&gt;&lt;/div&gt;" style="text;strokeColor=none;fillColor=none;align=left;verticalAlign=top;spacingLeft=4;spacingRight=4;overflow=hidden;rotatable=0;points=[[0,0.5],[1,0.5]];portConstraint=eastwest;whiteSpace=wrap;html=1;" vertex="1" parent="Kam8dWgokP5gCJ88pYki-41">
          <mxGeometry y="86" width="260" height="124" as="geometry" />
        </mxCell>
        <mxCell id="Kam8dWgokP5gCJ88pYki-48" value="BowBuilder" style="swimlane;fontStyle=0;childLayout=stackLayout;horizontal=1;startSize=26;fillColor=none;horizontalStack=0;resizeParent=1;resizeParentMax=0;resizeLast=0;collapsible=1;marginBottom=0;whiteSpace=wrap;html=1;" vertex="1" parent="1">
          <mxGeometry x="610" y="350" width="260" height="210" as="geometry" />
        </mxCell>
        <mxCell id="Kam8dWgokP5gCJ88pYki-49" value="- weapon: Weapon" style="text;strokeColor=none;fillColor=none;align=left;verticalAlign=top;spacingLeft=4;spacingRight=4;overflow=hidden;rotatable=0;points=[[0,0.5],[1,0.5]];portConstraint=eastwest;whiteSpace=wrap;html=1;" vertex="1" parent="Kam8dWgokP5gCJ88pYki-48">
          <mxGeometry y="26" width="260" height="26" as="geometry" />
        </mxCell>
        <mxCell id="Kam8dWgokP5gCJ88pYki-50" value="" style="line;strokeWidth=1;fillColor=none;align=left;verticalAlign=middle;spacingTop=-1;spacingLeft=3;spacingRight=3;rotatable=0;labelPosition=right;points=[];portConstraint=eastwest;strokeColor=inherit;" vertex="1" parent="Kam8dWgokP5gCJ88pYki-48">
          <mxGeometry y="52" width="260" height="8" as="geometry" />
        </mxCell>
        <mxCell id="Kam8dWgokP5gCJ88pYki-51" value="+ __init__()" style="text;strokeColor=none;fillColor=none;align=left;verticalAlign=top;spacingLeft=4;spacingRight=4;overflow=hidden;rotatable=0;points=[[0,0.5],[1,0.5]];portConstraint=eastwest;whiteSpace=wrap;html=1;" vertex="1" parent="Kam8dWgokP5gCJ88pYki-48">
          <mxGeometry y="60" width="260" height="26" as="geometry" />
        </mxCell>
        <mxCell id="Kam8dWgokP5gCJ88pYki-52" value="&lt;div&gt;+ add_base(): BowBuilder&lt;/div&gt;&lt;div&gt;&lt;br&gt;&lt;/div&gt;&lt;div&gt;+ add_blade(): BowBuilder&lt;/div&gt;&lt;div&gt;&lt;br&gt;&lt;/div&gt;&lt;div&gt;&lt;div&gt;+ add_enchantment(): BowBuilder&lt;/div&gt;&lt;div&gt;&lt;br&gt;&lt;/div&gt;&lt;div&gt;+ get_result(): Weapon&lt;/div&gt;&lt;br&gt;&lt;/div&gt;" style="text;strokeColor=none;fillColor=none;align=left;verticalAlign=top;spacingLeft=4;spacingRight=4;overflow=hidden;rotatable=0;points=[[0,0.5],[1,0.5]];portConstraint=eastwest;whiteSpace=wrap;html=1;" vertex="1" parent="Kam8dWgokP5gCJ88pYki-48">
          <mxGeometry y="86" width="260" height="124" as="geometry" />
        </mxCell>
        <mxCell id="Kam8dWgokP5gCJ88pYki-53" value="StaffBuilder" style="swimlane;fontStyle=0;childLayout=stackLayout;horizontal=1;startSize=26;fillColor=none;horizontalStack=0;resizeParent=1;resizeParentMax=0;resizeLast=0;collapsible=1;marginBottom=0;whiteSpace=wrap;html=1;" vertex="1" parent="1">
          <mxGeometry x="890" y="350" width="260" height="210" as="geometry" />
        </mxCell>
        <mxCell id="Kam8dWgokP5gCJ88pYki-54" value="- weapon: Weapon" style="text;strokeColor=none;fillColor=none;align=left;verticalAlign=top;spacingLeft=4;spacingRight=4;overflow=hidden;rotatable=0;points=[[0,0.5],[1,0.5]];portConstraint=eastwest;whiteSpace=wrap;html=1;" vertex="1" parent="Kam8dWgokP5gCJ88pYki-53">
          <mxGeometry y="26" width="260" height="26" as="geometry" />
        </mxCell>
        <mxCell id="Kam8dWgokP5gCJ88pYki-55" value="" style="line;strokeWidth=1;fillColor=none;align=left;verticalAlign=middle;spacingTop=-1;spacingLeft=3;spacingRight=3;rotatable=0;labelPosition=right;points=[];portConstraint=eastwest;strokeColor=inherit;" vertex="1" parent="Kam8dWgokP5gCJ88pYki-53">
          <mxGeometry y="52" width="260" height="8" as="geometry" />
        </mxCell>
        <mxCell id="Kam8dWgokP5gCJ88pYki-56" value="+ __init__()" style="text;strokeColor=none;fillColor=none;align=left;verticalAlign=top;spacingLeft=4;spacingRight=4;overflow=hidden;rotatable=0;points=[[0,0.5],[1,0.5]];portConstraint=eastwest;whiteSpace=wrap;html=1;" vertex="1" parent="Kam8dWgokP5gCJ88pYki-53">
          <mxGeometry y="60" width="260" height="26" as="geometry" />
        </mxCell>
        <mxCell id="Kam8dWgokP5gCJ88pYki-57" value="&lt;div&gt;+ add_base(): StaffBuilder&lt;/div&gt;&lt;div&gt;&lt;br&gt;&lt;/div&gt;&lt;div&gt;+ add_blade(): StaffBuilder&lt;/div&gt;&lt;div&gt;&lt;br&gt;&lt;/div&gt;&lt;div&gt;&lt;div&gt;+ add_enchantment(): StaffBuilder&lt;/div&gt;&lt;div&gt;&lt;br&gt;&lt;/div&gt;&lt;div&gt;+ get_result(): Weapon&lt;/div&gt;&lt;br&gt;&lt;/div&gt;" style="text;strokeColor=none;fillColor=none;align=left;verticalAlign=top;spacingLeft=4;spacingRight=4;overflow=hidden;rotatable=0;points=[[0,0.5],[1,0.5]];portConstraint=eastwest;whiteSpace=wrap;html=1;" vertex="1" parent="Kam8dWgokP5gCJ88pYki-53">
          <mxGeometry y="86" width="260" height="124" as="geometry" />
        </mxCell>
        <mxCell id="Kam8dWgokP5gCJ88pYki-59" value="" style="endArrow=classic;html=1;rounded=0;entryX=0.242;entryY=1.102;entryDx=0;entryDy=0;entryPerimeter=0;" edge="1" parent="1" target="Kam8dWgokP5gCJ88pYki-40">
          <mxGeometry width="50" height="50" relative="1" as="geometry">
            <mxPoint x="440" y="350" as="sourcePoint" />
            <mxPoint x="490" y="300" as="targetPoint" />
          </mxGeometry>
        </mxCell>
        <mxCell id="Kam8dWgokP5gCJ88pYki-60" value="" style="endArrow=classic;html=1;rounded=0;entryX=0.366;entryY=1.128;entryDx=0;entryDy=0;entryPerimeter=0;exitX=0.529;exitY=0.002;exitDx=0;exitDy=0;exitPerimeter=0;" edge="1" parent="1" source="Kam8dWgokP5gCJ88pYki-48" target="Kam8dWgokP5gCJ88pYki-40">
          <mxGeometry width="50" height="50" relative="1" as="geometry">
            <mxPoint x="760" y="427" as="sourcePoint" />
            <mxPoint x="1219" y="300" as="targetPoint" />
          </mxGeometry>
        </mxCell>
        <mxCell id="Kam8dWgokP5gCJ88pYki-61" value="" style="endArrow=classic;html=1;rounded=0;entryX=0.443;entryY=1.026;entryDx=0;entryDy=0;entryPerimeter=0;exitX=0.5;exitY=0;exitDx=0;exitDy=0;" edge="1" parent="1" source="Kam8dWgokP5gCJ88pYki-53" target="Kam8dWgokP5gCJ88pYki-40">
          <mxGeometry width="50" height="50" relative="1" as="geometry">
            <mxPoint x="1040" y="437" as="sourcePoint" />
            <mxPoint x="1499" y="310" as="targetPoint" />
          </mxGeometry>
        </mxCell>
        <mxCell id="Kam8dWgokP5gCJ88pYki-62" value="" style="endArrow=diamondThin;endFill=1;endSize=24;html=1;rounded=0;entryX=0.502;entryY=1.134;entryDx=0;entryDy=0;entryPerimeter=0;" edge="1" parent="1" target="Kam8dWgokP5gCJ88pYki-35">
          <mxGeometry width="160" relative="1" as="geometry">
            <mxPoint x="440" y="350" as="sourcePoint" />
            <mxPoint x="522" y="586" as="targetPoint" />
          </mxGeometry>
        </mxCell>
        <mxCell id="Kam8dWgokP5gCJ88pYki-63" value="" style="endArrow=diamondThin;endFill=1;endSize=24;html=1;rounded=0;exitX=0.464;exitY=0.001;exitDx=0;exitDy=0;exitPerimeter=0;" edge="1" parent="1" source="Kam8dWgokP5gCJ88pYki-48" target="Kam8dWgokP5gCJ88pYki-35">
          <mxGeometry width="160" relative="1" as="geometry">
            <mxPoint x="700" y="300" as="sourcePoint" />
            <mxPoint x="772" y="646" as="targetPoint" />
          </mxGeometry>
        </mxCell>
        <mxCell id="Kam8dWgokP5gCJ88pYki-64" value="" style="endArrow=diamondThin;endFill=1;endSize=24;html=1;rounded=0;exitX=0.25;exitY=0;exitDx=0;exitDy=0;entryX=0.624;entryY=1.092;entryDx=0;entryDy=0;entryPerimeter=0;" edge="1" parent="1" source="Kam8dWgokP5gCJ88pYki-53" target="Kam8dWgokP5gCJ88pYki-35">
          <mxGeometry width="160" relative="1" as="geometry">
            <mxPoint x="720" y="150" as="sourcePoint" />
            <mxPoint x="792" y="496" as="targetPoint" />
          </mxGeometry>
        </mxCell>
        <mxCell id="Kam8dWgokP5gCJ88pYki-65" value="хранит готовый экземпляр" style="text;html=1;align=center;verticalAlign=middle;resizable=0;points=[];autosize=1;strokeColor=none;fillColor=none;" vertex="1" parent="1">
          <mxGeometry x="490" y="-92" width="160" height="30" as="geometry" />
        </mxCell>
        <mxCell id="Kam8dWgokP5gCJ88pYki-66" value="определяет шаги сборки" style="text;html=1;align=center;verticalAlign=middle;resizable=0;points=[];autosize=1;strokeColor=none;fillColor=none;" vertex="1" parent="1">
          <mxGeometry x="855" y="8" width="150" height="30" as="geometry" />
        </mxCell>
        <mxCell id="Kam8dWgokP5gCJ88pYki-67" value="реалиширует сборку по шагам" style="text;html=1;align=center;verticalAlign=middle;resizable=0;points=[];autosize=1;strokeColor=none;fillColor=none;" vertex="1" parent="1">
          <mxGeometry x="590" y="568" width="180" height="30" as="geometry" />
        </mxCell>
      </root>
    </mxGraphModel>
  </diagram>
</mxfile>
